<svg xmlns="http://www.w3.org/2000/svg" width="55" height="102" fill="none" viewBox="0 0 55 102"><g clip-path="url(#a)"><path fill="#FA7C1E" d="M43.765 30.275 48.314 7.77 35.078.135l-4.555 22.549"/><path fill="#FA7C1E" d="m48.314 7.77-4.549 22.505 5.218 2.99-.034 11.806c7.72 9.465 12.906 21.946 12.876 32.829-.022 8.02-2.876 13.663-7.475 16.316v.003l-10.18 5.871h-.002c-4.66 2.688-11.112 2.31-18.233-1.772C11.78 90.205.345 70.543.391 54.397c.023-8.02 2.876-13.66 7.476-16.313l5.55-3.202.028-10.275 10.18-5.873 6.898 3.95L35.078.134z"/><path fill="#FFB05C" d="m30.92 34.79 7.746 4.447-.033 11.788c7.691 9.45 12.86 21.911 12.83 32.776-.047 16.12-11.516 22.62-25.62 14.522C11.741 90.223.345 70.592.391 54.472c.031-10.866 5.253-17.36 12.974-17.958l.033-11.787 4.353 2.5M34.568 41.56l-1.89-1.085-15.21-8.734-.015 4.98c2.676.45 5.556 1.51 8.556 3.232 2.998 1.722 5.873 3.967 8.545 6.588z"/><path fill="#FFB05C" d="M32.96 40.51 19.6 32.908 12.234 9.311l13.376 7.661z"/><path stroke="#000" stroke-dasharray="1 2" stroke-linecap="round" stroke-linejoin="round" stroke-miterlimit="10" stroke-width="0.5" d="M18.439 32.15q.444-.242.908-.449m-8.074 23.173a39 39 0 0 1-.519-6.288c.022-7.697 2.643-13.202 6.908-15.971m-.01 40.016C14.6 67.156 12.394 61.245 11.379 55.5m37.124 40.408c-3.147.186-6.7-.6-10.477-2.46m-3.284-51.913 4.09-2.323m-4.104 7.305 4.089-2.369"/><path stroke="#000" stroke-linecap="round" stroke-linejoin="round" stroke-miterlimit="10" stroke-width="0.5" d="M30.523 22.684 35.078.134 48.314 7.77l-4.549 22.505 5.218 2.991-.034 11.805M30.523 22.684l13.242 7.59m-13.242-7.59-3.916-2.243M61.825 77.9c.03-10.883-5.157-23.364-12.876-32.829M61.825 77.9c-.022 8.02-2.876 13.666-7.475 16.319l-10.18 5.871c-4.66 2.688-11.114 2.31-18.235-1.772C11.78 90.205.345 70.543.391 54.397c.023-8.02 2.876-13.66 7.476-16.313M61.825 77.9l-10.18 5.873M48.949 45.07l-10.18 5.873M7.867 38.084l5.55-3.202.028-10.275 3.051-1.76M7.867 38.084c1.647-.954 3.498-1.515 5.544-1.674l.033-11.806 4.37 2.505m14.175-11.68 13.242 7.59m-7.98 3.496 4.547-22.503m-8.282 3.857 13.244 7.59M31.03 34.683l7.772 4.455-.033 11.806m0 0c7.719 9.465 12.906 21.947 12.876 32.829m0 0c-.031 10.693-5.09 17.16-12.616 17.952m9.79-6.277 10.154-5.83m-7.994.344 10.18-5.874M51.15 77.64l10.18-5.873m-11.742-.77 10.18-5.873m-12.556-.432 10.18-5.873M43.61 57.814l10.193-5.852m-15-12.824 10.18-5.873m-31.467 3.352 4.345-2.506m12.828 7.354-1.897-1.087L17.53 31.63l-.015 4.988c2.686.45 5.576 1.512 8.586 3.237 3.009 1.725 5.895 3.973 8.575 6.598zm-1.894-1.088L19.58 32.803 12.29 9.29l13.234 7.634z"/><path fill="#FA7C1E" stroke="#000" stroke-linecap="round" stroke-linejoin="round" stroke-miterlimit="10" stroke-width="0.5" d="m13.598 73.866 3.055-1.76 6.791 3.889-3.053 1.76zm14.668 8.397 3.053-1.76 6.792 3.889-3.054 1.76zm6.791 3.89 3.054-1.76-.025 8.976-3.055 1.76z"/><path fill="#FFB05C" stroke="#000" stroke-linecap="round" stroke-linejoin="round" stroke-miterlimit="10" stroke-width="0.5" d="m28.346 54.041-.081 28.223 6.791 3.89-.026 8.974-21.458-12.287.025-8.975 6.793 3.89.044-15.532-3.985 2.252-5.55-9.534 9.572-5.41z"/><path fill="#000" d="M26.719 53.11 26.64 83.1l8.41 4.816.005-1.763-6.792-3.89.081-28.222z"/><path fill="#FA7C1E" stroke="#000" stroke-linecap="round" stroke-linejoin="round" stroke-miterlimit="10" stroke-width="0.5" d="m28.347 54.04 3.053-1.76-.08 28.224-3.054 1.759zm-7.878-4.51 3.053-1.758 7.875 4.508-3.053 1.76z"/></g><defs><clipPath id="a"><path fill="#fff" d="M0 0h62v102H0z"/></clipPath></defs></svg>