<svg xmlns="http://www.w3.org/2000/svg" width="64" height="116" fill="none" viewBox="0 0 64 116"><path fill="#FA7C1E" stroke="#000" stroke-linecap="round" stroke-linejoin="round" stroke-miterlimit="10" stroke-width="0.5" d="M49.75 49.888v17.041c1.876-.995 3.584-1.135 3.584 3.468v22.471c1.061-.614 6.354-20.093 8.48-33.89 1.876-12.175-2.443-14.676-12.064-9.09m-35.788 0v17.041c-1.876-.995-3.585-1.135-3.585 3.468v22.471c-1.06-.614-6.353-20.093-8.48-33.89-1.875-12.175 2.445-14.676 12.065-9.09"/><path fill="#FFB05C" stroke="#000" stroke-linecap="round" stroke-linejoin="round" stroke-miterlimit="10" stroke-width="0.5" d="M21.634 87.172c2.821-1.637 6.521-2.457 10.22-2.457s7.399.82 10.22 2.457c2.822 1.639 4.232 3.784 4.232 5.934s-1.41 4.295-4.232 5.933-6.52 2.457-10.22 2.457c-3.699 0-7.399-.819-10.22-2.457s-4.232-3.784-4.232-5.933c0-2.145 1.41-4.295 4.232-5.934"/><path fill="#FA7C1E" stroke="#000" stroke-linecap="round" stroke-linejoin="round" stroke-miterlimit="10" stroke-width="0.5" d="M42.076 87.172c-2.822-1.637-6.521-2.457-10.22-2.457s-7.399.82-10.22 2.457c-1.276.74-2.261 1.586-2.96 2.49.719.919 1.88 1.554 3.623 1.761 11.615 1.387 14.842 6.472 14.687 9.522 1.85-.407 3.592-1.039 5.086-1.906 2.82-1.638 4.232-3.784 4.232-5.933s-1.412-4.295-4.232-5.934z"/><path fill="#FFB05C" stroke="#000" stroke-linecap="round" stroke-linejoin="round" stroke-miterlimit="10" stroke-width="0.5" d="M57.702 55.215C55.584 31.641 40.004 10.197 31.854.967c-8.15 9.23-23.73 30.674-25.848 54.248-1.04 11.603 1.772 22.164 4.775 30.57h.005c.822 2.302 2.77 4.5 5.849 6.285 4.204 2.442 9.711 3.66 15.218 3.66 5.508 0 11.016-1.218 15.22-3.66 3.079-1.785 5.026-3.983 5.849-6.285h.004c3.003-8.406 5.82-18.967 4.776-30.57"/><path fill="#FA7C1E" stroke="#000" stroke-linecap="round" stroke-linejoin="round" stroke-miterlimit="10" stroke-width="0.5" d="M31.856.967c-3.154 3.572-7.427 8.986-11.594 15.635-.445.755-.672 1.542-.672 2.329 0 1.822 1.196 3.644 3.592 5.034s5.535 2.086 8.674 2.086c3.14 0 6.278-.695 8.674-2.086 2.396-1.39 3.593-3.212 3.593-5.034 0-.787-.223-1.574-.672-2.326C39.28 9.953 35.011 4.544 31.856.967m16.44 68.855c-2.324 4.491-3.079 9.721-2.622 15.415 1.875 1.183 3.715 3.085 3.715 7.688v22.471c1.06.615 6.354-12.718 8.48-24.045 1.875-9.997-.263-15.583-9.577-21.529z"/><path fill="#FA7C1E" stroke="#000" stroke-linecap="round" stroke-linejoin="round" stroke-miterlimit="10" stroke-width="0.5" d="M55.45 75.977s.023.027.035.047zm-45.186-2.219c1.39-1.328 3.097-2.623 5.153-3.936h-.004c2.325 4.491 3.08 9.722 2.622 15.415-1.875 1.183-3.715 3.085-3.715 7.688v22.471c-1.061.614-6.353-12.718-8.48-24.045-1.461-7.79-.485-12.902 4.424-17.593"/><path stroke="#000" stroke-dasharray="1 2" stroke-linecap="round" stroke-linejoin="round" stroke-miterlimit="10" stroke-width="0.5" d="M49.258 90.559c1.836-1.463 3.057-3.105 3.664-4.805h.004c1.013-2.834 2.004-5.913 2.833-9.193m-47.799.035c.828 3.268 1.815 6.335 2.824 9.159h.005c.602 1.687 1.809 3.316 3.622 4.771"/><path fill="#FFB05C" stroke="#000" stroke-linecap="round" stroke-linejoin="round" stroke-miterlimit="10" stroke-width="0.5" d="M25.642 49.421c.201-6.464-3.858-11.838-9.067-12.003-5.21-.165-9.597 4.943-9.798 11.407-.203 6.465 3.856 11.839 9.066 12.004s9.596-4.943 9.799-11.408"/><path fill="#FFB05C" stroke="#000" stroke-linecap="round" stroke-linejoin="round" stroke-miterlimit="10" stroke-width="0.5" d="M22.882 52.69c1.633-4.588-.024-9.906-3.7-11.872a6.05 6.05 0 0 0-2.34-.699c-2.765.076-5.4 2.11-6.596 5.47-1.633 4.587.024 9.905 3.7 11.871a6.05 6.05 0 0 0 2.34.7c2.766-.077 5.4-2.11 6.596-5.47"/><path fill="#000" stroke="#000" stroke-linecap="round" stroke-linejoin="round" stroke-miterlimit="10" stroke-width="0.5" d="M21.38 38.409a7.9 7.9 0 0 0-3.462-.947l-1.323-.04a7.8 7.8 0 0 1 3.461.947c4.764 2.545 6.91 9.433 4.792 15.375-1.617 4.535-5.25 7.216-8.996 7.096l1.323.044c3.748.12 7.38-2.561 8.996-7.096 2.119-5.942-.031-12.83-4.792-15.375z"/><path fill="#000" stroke="#000" stroke-linecap="round" stroke-linejoin="round" stroke-miterlimit="10" stroke-width="0.5" d="M10.242 45.593c1.196-3.36 3.83-5.395 6.596-5.47-3.008-.268-5.98 1.814-7.275 5.45-1.633 4.587.023 9.905 3.698 11.87a6 6 0 0 0 3.02.724 6.05 6.05 0 0 1-2.34-.7c-3.676-1.965-5.332-7.28-3.699-11.87z"/><path stroke="#000" stroke-dasharray="1 2" stroke-linecap="round" stroke-linejoin="round" stroke-miterlimit="10" stroke-width="0.5" d="M20.602 16.145c1.887-2.508 6.211-4.262 11.246-4.262 5.195 0 9.636 1.869 11.42 4.507"/></svg>